<svg width="445" height="471" viewBox="0 0 445 471" fill="none" xmlns="http://www.w3.org/2000/svg">
<path d="M204.073 105H179.927C178.753 105 177.687 105.685 177.199 106.753L170.472 121.467C170.168 122.133 169.631 122.664 168.962 122.961L162.019 126.047C161.362 126.339 160.621 126.385 159.933 126.177L141.348 120.559C140.223 120.218 139.002 120.567 138.226 121.451L122.588 139.261C121.911 140.032 121.675 141.097 121.963 142.083L127.182 159.914C127.387 160.614 127.33 161.365 127.021 162.025L124.458 167.518C124.162 168.153 123.654 168.664 123.021 168.963L107.719 176.188C106.669 176.684 106 177.74 106 178.901V205.5C106 206.711 106.728 207.803 107.846 208.269L122.888 214.537C123.602 214.834 124.173 215.395 124.483 216.104L127.058 221.991C127.344 222.642 127.388 223.374 127.183 224.055L122.029 241.236C121.705 242.318 122.016 243.491 122.834 244.27L141.17 261.733C141.986 262.511 143.17 262.765 144.233 262.391L160.031 256.84C160.659 256.62 161.343 256.614 161.974 256.825L168.745 259.082C169.544 259.348 170.195 259.939 170.537 260.709L177.208 275.718C177.69 276.802 178.764 277.5 179.95 277.5H206.948C208.185 277.5 209.295 276.74 209.744 275.587L215.479 260.84C215.808 259.993 216.504 259.341 217.371 259.067L224.469 256.826C225.135 256.615 225.854 256.644 226.502 256.907L239.75 262.289C240.82 262.724 242.043 262.506 242.897 261.73L262.101 244.271C262.956 243.494 263.289 242.296 262.957 241.19L257.817 224.055C257.612 223.374 257.656 222.642 257.942 221.991L260.517 216.104C260.827 215.395 261.398 214.834 262.112 214.537L277.154 208.269C278.272 207.803 279 206.711 279 205.5V178.901C279 177.74 278.331 176.684 277.281 176.188L262.16 169.048C261.419 168.698 260.854 168.06 260.594 167.283L257.821 158.962C257.613 158.338 257.616 157.663 257.829 157.041L262.869 142.341C263.253 141.221 262.942 139.98 262.076 139.173L242.841 121.249C242.018 120.482 240.835 120.24 239.777 120.622L224.603 126.102C223.894 126.358 223.114 126.338 222.42 126.045L215.078 122.954C214.385 122.662 213.826 122.12 213.514 121.436L206.801 106.753C206.313 105.685 205.247 105 204.073 105Z" stroke="#FFFF3F" stroke-width="7"/>
<path d="M440.471 312.36C430.624 255.145 397.551 127.085 338.905 46.5547C338.637 46.1869 338.291 45.8895 337.889 45.677L259.658 4.34742C259.226 4.11926 258.745 4 258.256 4L176.599 4C176.203 4 175.812 4.07811 175.447 4.22985L87.7091 40.7052C87.2439 40.8986 86.8348 41.2061 86.5197 41.5992L30.8511 111.062C30.619 111.351 30.4427 111.682 30.3311 112.035L4.20237 194.859C4.06911 195.281 4.03104 195.728 4.09088 196.166L15.9254 282.953C15.9747 283.314 16.0897 283.664 16.2647 283.985L72.2677 386.574C72.4216 386.856 72.5292 387.161 72.5864 387.477L86.5532 464.535C86.8119 465.962 88.0546 467 89.5051 467L283.5 467C285.157 467 286.5 465.657 286.5 464L286.5 426C286.5 424.343 287.843 423 289.5 423L386.169 423C387.758 423 389.072 421.76 389.164 420.174L394.85 322.09C394.936 320.603 396.101 319.404 397.585 319.275L437.773 315.78C439.514 315.629 440.767 314.082 440.471 312.36Z" stroke="#FFFCFF" stroke-width="7"/>
<path d="M440.471 312.36C430.624 255.145 397.551 127.085 338.905 46.5547C338.637 46.1869 338.291 45.8895 337.889 45.677L259.658 4.34742C259.226 4.11926 258.745 4 258.256 4L176.599 4C176.203 4 175.812 4.07811 175.447 4.22985L87.7091 40.7052C87.2439 40.8986 86.8348 41.2061 86.5197 41.5992L30.8511 111.062C30.619 111.351 30.4427 111.682 30.3311 112.035L4.20237 194.859C4.06911 195.281 4.03104 195.728 4.09088 196.166L15.9254 282.953C15.9747 283.314 16.0897 283.664 16.2647 283.985L72.2677 386.574C72.4216 386.856 72.5292 387.161 72.5864 387.477L86.5532 464.535C86.8119 465.962 88.0546 467 89.5051 467L283.5 467C285.157 467 286.5 465.657 286.5 464L286.5 426C286.5 424.343 287.843 423 289.5 423L386.169 423C387.758 423 389.072 421.76 389.164 420.174L394.85 322.09C394.936 320.603 396.101 319.404 397.585 319.275L437.773 315.78C439.514 315.629 440.767 314.082 440.471 312.36Z" stroke="#FFFCFF" stroke-width="7"/>
<path d="M253.5 59L273.5 77M273.5 77L253.5 97.5M273.5 77H184.032C183.68 77 183.331 77.0619 183.001 77.1828L128.02 97.3098C127.676 97.4355 127.358 97.6231 127.082 97.8631L93.5475 127.024C93.1877 127.337 92.9076 127.731 92.7306 128.174L73.2146 176.964C73.0728 177.318 73 177.696 73 178.078V216.492C73 216.828 73.0565 217.162 73.1671 217.479L84.5 250" stroke="#FFFCFF" stroke-width="7"/>
<path d="M94.1284 260.754C95.32 260.084 96.8137 260.304 97.7609 261.29L114.422 278.622C115.451 279.693 115.542 281.355 114.636 282.532L111.025 287.222C109.962 288.602 107.952 288.79 106.652 287.631L95.2892 277.504C95.1283 277.361 94.9834 277.2 94.8568 277.026L88.2385 267.902C87.1852 266.45 87.6333 264.404 89.1972 263.525L94.1284 260.754Z" fill="#FFFCFF"/>
<path d="M127.992 291.064C128.796 289.98 130.226 289.566 131.485 290.054L154.983 299.156C156.368 299.692 157.152 301.161 156.827 302.61L155.532 308.379C155.149 310.082 153.401 311.1 151.731 310.592L136.465 305.949C136.267 305.889 136.075 305.808 135.893 305.708L125.577 300.036C123.984 299.16 123.53 297.08 124.613 295.62L127.992 291.064Z" fill="#FFFCFF"/>
<path d="M218.714 305.051C218.616 303.731 219.395 302.503 220.63 302.029L243.161 293.381C244.548 292.849 246.114 293.411 246.846 294.703L249.764 299.853C250.623 301.369 250.015 303.294 248.442 304.042L234.402 310.714L223.099 314.289C221.254 314.872 219.346 313.581 219.203 311.65L218.714 305.051Z" fill="#FFFCFF"/>
<path d="M260.445 285.801C259.713 284.678 259.816 283.205 260.696 282.194L276.513 264.029C277.489 262.909 279.137 262.671 280.389 263.47L285.069 266.455C286.438 267.328 286.864 269.133 286.029 270.526L283.574 274.626C283.481 274.78 283.375 274.926 283.256 275.062L276.265 283.036L267.686 290.619C266.314 291.832 264.185 291.543 263.185 290.009L260.445 285.801Z" fill="#FFFCFF"/>
<path d="M290.947 252.264C289.834 251.472 289.397 250.026 289.885 248.749L298.47 226.293C299 224.906 300.465 224.116 301.916 224.434L307.697 225.704C309.398 226.077 310.425 227.816 309.93 229.486L305.608 244.08C305.546 244.286 305.463 244.486 305.359 244.674L299.923 254.549C299.058 256.12 297.016 256.586 295.555 255.546L290.947 252.264Z" fill="#FFFCFF"/>
<path d="M171.789 307.806C172.088 306.472 173.251 305.509 174.617 305.463L198.645 304.663C200.129 304.614 201.426 305.657 201.695 307.117L202.768 312.939C203.084 314.651 201.88 316.272 200.149 316.464L185.021 318.142C184.807 318.166 184.591 318.167 184.376 318.144L173.166 316.965C171.382 316.777 170.161 315.076 170.553 313.325L171.789 307.806Z" fill="#FFFCFF"/>
<path d="M229.5 192.5C229.5 212.976 213.118 229.5 193 229.5C172.882 229.5 156.5 212.976 156.5 192.5C156.5 172.024 172.882 155.5 193 155.5C213.118 155.5 229.5 172.024 229.5 192.5Z" stroke="#FFFF3F" stroke-width="7"/>
<rect x="161" y="419.5" width="16" height="7" rx="3" fill="#FFFCFF"/>
<rect x="193" y="419.5" width="16" height="7" rx="3" fill="#FFFCFF"/>
<rect x="225" y="419.5" width="16" height="7" rx="3" fill="#FFFCFF"/>
<rect x="264" y="419.5" width="29" height="7" rx="3" fill="#FFFCFF"/>
</svg>
