<svg width="71" height="71" viewBox="0 0 71 71" fill="none" xmlns="http://www.w3.org/2000/svg">
<path d="M35.0822 46.7901C41.5255 46.8128 46.7673 41.608 46.79 35.1647C46.8128 28.7214 41.6079 23.4796 35.1646 23.4569C28.7214 23.4341 23.4796 28.639 23.4568 35.0822C23.4341 41.5255 28.6389 46.7673 35.0822 46.7901Z" stroke="#4B07E8" stroke-width="2" stroke-linecap="round" stroke-linejoin="round"/>
<path d="M35.2261 5.95691L35.2055 11.7905" stroke="#4B07E8" stroke-width="2" stroke-linecap="round" stroke-linejoin="round"/>
<path d="M35.0405 58.4567L35.0199 64.2903" stroke="#4B07E8" stroke-width="2" stroke-linecap="round" stroke-linejoin="round"/>
<path d="M14.7788 14.6348L19.1383 19.0252" stroke="#4B07E8" stroke-width="2" stroke-linecap="round" stroke-linejoin="round"/>
<path d="M51.1079 51.2217L55.4674 55.6121" stroke="#4B07E8" stroke-width="2" stroke-linecap="round" stroke-linejoin="round"/>
<path d="M5.95654 35.0204L11.7898 35.041" stroke="#4B07E8" stroke-width="2" stroke-linecap="round" stroke-linejoin="round"/>
<path d="M58.4565 35.2058L64.2898 35.2264" stroke="#4B07E8" stroke-width="2" stroke-linecap="round" stroke-linejoin="round"/>
<path d="M14.6344 55.4679L19.0249 51.1084" stroke="#4B07E8" stroke-width="2" stroke-linecap="round" stroke-linejoin="round"/>
<path d="M51.2214 19.1385L55.6118 14.779" stroke="#4B07E8" stroke-width="2" stroke-linecap="round" stroke-linejoin="round"/>
</svg>
