<svg width="102" height="102" viewBox="0 0 102 102" fill="none" xmlns="http://www.w3.org/2000/svg">
<circle cx="51" cy="51" r="50.5" stroke="#2D00F7"/>
<mask id="path-2-inside-1_239_4983" fill="white">
<path d="M94.6898 51C96.518 51 98.0121 52.484 97.8836 54.3077C97.1009 65.4064 92.3993 75.9096 84.5596 83.9052C75.9449 92.6913 64.228 97.7486 51.9255 97.9909C39.623 98.2332 27.7161 93.6412 18.762 85.2011C9.80799 76.761 4.52096 65.146 4.03645 52.8506C3.55194 40.5553 7.9086 28.5603 16.1707 19.4418C24.4329 10.3232 35.9415 4.80852 48.2249 4.082C60.5084 3.35547 72.5868 7.47508 81.8663 15.5561C90.3108 22.9099 95.8244 33.0106 97.4779 44.0133C97.7496 45.8212 96.3768 47.4182 94.5543 47.5621V47.5621C92.7318 47.7059 91.1516 46.3413 90.859 44.5367C89.3556 35.2629 84.6554 26.7639 77.5184 20.5487C69.5461 13.606 59.169 10.0667 48.6158 10.6909C38.0627 11.3151 28.1751 16.053 21.0768 23.8871C13.9785 31.7211 10.2355 42.0265 10.6518 52.59C11.068 63.1534 15.6103 73.1323 23.3031 80.3835C30.9959 87.6347 41.2256 91.5799 51.7951 91.3717C62.3647 91.1636 72.4311 86.8186 79.8324 79.2701C86.4582 72.5126 90.475 63.6702 91.244 54.3068C91.3937 52.4848 92.8616 51 94.6898 51V51Z"/>
</mask>
<path d="M94.6898 51C96.518 51 98.0121 52.484 97.8836 54.3077C97.1009 65.4064 92.3993 75.9096 84.5596 83.9052C75.9449 92.6913 64.228 97.7486 51.9255 97.9909C39.623 98.2332 27.7161 93.6412 18.762 85.2011C9.80799 76.761 4.52096 65.146 4.03645 52.8506C3.55194 40.5553 7.9086 28.5603 16.1707 19.4418C24.4329 10.3232 35.9415 4.80852 48.2249 4.082C60.5084 3.35547 72.5868 7.47508 81.8663 15.5561C90.3108 22.9099 95.8244 33.0106 97.4779 44.0133C97.7496 45.8212 96.3768 47.4182 94.5543 47.5621V47.5621C92.7318 47.7059 91.1516 46.3413 90.859 44.5367C89.3556 35.2629 84.6554 26.7639 77.5184 20.5487C69.5461 13.606 59.169 10.0667 48.6158 10.6909C38.0627 11.3151 28.1751 16.053 21.0768 23.8871C13.9785 31.7211 10.2355 42.0265 10.6518 52.59C11.068 63.1534 15.6103 73.1323 23.3031 80.3835C30.9959 87.6347 41.2256 91.5799 51.7951 91.3717C62.3647 91.1636 72.4311 86.8186 79.8324 79.2701C86.4582 72.5126 90.475 63.6702 91.244 54.3068C91.3937 52.4848 92.8616 51 94.6898 51V51Z" stroke="url(#paint0_radial_239_4983)" stroke-width="2" mask="url(#path-2-inside-1_239_4983)"/>
<path d="M36.4453 39.6738L27.9727 63H24.5098L34.2656 37.4062H36.498L36.4453 39.6738ZM43.5469 63L35.0566 39.6738L35.0039 37.4062H37.2363L47.0273 63H43.5469ZM43.1074 53.5254V56.3027H28.7285V53.5254H43.1074ZM59.8945 52.9629H53.0566V50.2031H59.8945C61.2188 50.2031 62.291 49.9922 63.1113 49.5703C63.9316 49.1484 64.5293 48.5625 64.9043 47.8125C65.291 47.0625 65.4844 46.207 65.4844 45.2461C65.4844 44.3672 65.291 43.541 64.9043 42.7676C64.5293 41.9941 63.9316 41.373 63.1113 40.9043C62.291 40.4238 61.2188 40.1836 59.8945 40.1836H53.8477V63H50.4551V37.4062H59.8945C61.8281 37.4062 63.4629 37.7402 64.7988 38.4082C66.1348 39.0762 67.1484 40.002 67.8398 41.1855C68.5312 42.3574 68.877 43.6992 68.877 45.2109C68.877 46.8516 68.5312 48.252 67.8398 49.4121C67.1484 50.5723 66.1348 51.457 64.7988 52.0664C63.4629 52.6641 61.8281 52.9629 59.8945 52.9629ZM76.8047 37.4062V63H73.4121V37.4062H76.8047Z" fill="#2D00F7"/>
<defs>
<radialGradient id="paint0_radial_239_4983" cx="0" cy="0" r="1" gradientUnits="userSpaceOnUse" gradientTransform="translate(51 51) rotate(90) scale(47)">
<stop offset="0.46875" stop-color="#2D00F7"/>
<stop offset="1" stop-color="#F20089" stop-opacity="0.29"/>
</radialGradient>
</defs>
</svg>
