<svg width="72" height="72" viewBox="0 0 72 72" fill="none" xmlns="http://www.w3.org/2000/svg">
<path d="M52.5002 57C56.0806 57 59.5144 55.5777 62.0461 53.0459C64.5779 50.5142 66.0002 47.0804 66.0002 43.5C66.0002 39.9196 64.5779 36.4858 62.0461 33.9541C59.5144 31.4223 56.0806 30 52.5002 30H47.1002C45.9871 26.2667 43.8576 22.9166 40.9496 20.3243C38.0416 17.732 34.4699 15.9997 30.6338 15.3211C26.7976 14.6425 22.8484 15.0443 19.2275 16.4816C15.6067 17.9189 12.4571 20.3351 10.1308 23.46C7.8045 26.5848 6.39329 30.2952 6.05495 34.1761C5.71661 38.0571 6.46447 41.9557 8.21492 45.436C9.96537 48.9162 12.6494 51.841 15.9669 53.8832C19.2844 55.9254 23.1045 57.0046 27.0002 57H52.5002Z" stroke="white" stroke-width="2" stroke-linecap="round" stroke-linejoin="round"/>
</svg>
