<svg width="602" height="5" viewBox="0 0 602 5" fill="none" xmlns="http://www.w3.org/2000/svg">
<rect x="0.00537109" y="4.1228" width="3" height="3" transform="rotate(-90.107 0.00537109 4.1228)" fill="white"/>
<rect x="13.0054" y="4.09863" width="3" height="3" transform="rotate(-90.107 13.0054 4.09863)" fill="white"/>
<rect x="26.0054" y="4.07422" width="3" height="3" transform="rotate(-90.107 26.0054 4.07422)" fill="white"/>
<rect x="39.0054" y="4.05005" width="3" height="3" transform="rotate(-90.107 39.0054 4.05005)" fill="white"/>
<rect x="52.0054" y="4.02563" width="3" height="3" transform="rotate(-90.107 52.0054 4.02563)" fill="white"/>
<rect x="65.0054" y="4.00146" width="3" height="3" transform="rotate(-90.107 65.0054 4.00146)" fill="white"/>
<rect x="78.0054" y="3.97705" width="3" height="3" transform="rotate(-90.107 78.0054 3.97705)" fill="white"/>
<rect x="91.0054" y="3.95288" width="3" height="3" transform="rotate(-90.107 91.0054 3.95288)" fill="white"/>
<rect x="104.005" y="3.92847" width="3" height="3" transform="rotate(-90.107 104.005 3.92847)" fill="white"/>
<rect x="117.005" y="3.9043" width="3" height="3" transform="rotate(-90.107 117.005 3.9043)" fill="white"/>
<rect x="130.005" y="3.87988" width="3" height="3" transform="rotate(-90.107 130.005 3.87988)" fill="white"/>
<rect x="143.005" y="3.85571" width="3" height="3" transform="rotate(-90.107 143.005 3.85571)" fill="white"/>
<rect x="156.005" y="3.8313" width="3" height="3" transform="rotate(-90.107 156.005 3.8313)" fill="white"/>
<rect x="169.005" y="3.80713" width="3" height="3" transform="rotate(-90.107 169.005 3.80713)" fill="white"/>
<rect x="182.005" y="3.78271" width="3" height="3" transform="rotate(-90.107 182.005 3.78271)" fill="white"/>
<rect x="195.005" y="3.75854" width="3" height="3" transform="rotate(-90.107 195.005 3.75854)" fill="white"/>
<rect x="208.005" y="3.73413" width="3" height="3" transform="rotate(-90.107 208.005 3.73413)" fill="white"/>
<rect x="221.005" y="3.70996" width="3" height="3" transform="rotate(-90.107 221.005 3.70996)" fill="white"/>
<rect x="234.005" y="3.68555" width="3" height="3" transform="rotate(-90.107 234.005 3.68555)" fill="white"/>
<rect x="247.005" y="3.66138" width="3" height="3" transform="rotate(-90.107 247.005 3.66138)" fill="white"/>
<rect x="260.005" y="3.63696" width="3" height="3" transform="rotate(-90.107 260.005 3.63696)" fill="white"/>
<rect x="273.005" y="3.61279" width="3" height="3" transform="rotate(-90.107 273.005 3.61279)" fill="white"/>
<rect x="286.005" y="3.58838" width="3" height="3" transform="rotate(-90.107 286.005 3.58838)" fill="white"/>
<rect x="299.005" y="3.56421" width="3" height="3" transform="rotate(-90.107 299.005 3.56421)" fill="white"/>
<rect x="312.005" y="3.53979" width="3" height="3" transform="rotate(-90.107 312.005 3.53979)" fill="white"/>
<rect x="325.005" y="3.51562" width="3" height="3" transform="rotate(-90.107 325.005 3.51562)" fill="white"/>
<rect x="338.005" y="3.49146" width="3" height="3" transform="rotate(-90.107 338.005 3.49146)" fill="white"/>
<rect x="351.005" y="3.46704" width="3" height="3" transform="rotate(-90.107 351.005 3.46704)" fill="white"/>
<rect x="364.005" y="3.44287" width="3" height="3" transform="rotate(-90.107 364.005 3.44287)" fill="white"/>
<rect x="377.005" y="3.41846" width="3" height="3" transform="rotate(-90.107 377.005 3.41846)" fill="white"/>
<rect x="390.005" y="3.39429" width="3" height="3" transform="rotate(-90.107 390.005 3.39429)" fill="white"/>
<rect x="403.005" y="3.36987" width="3" height="3" transform="rotate(-90.107 403.005 3.36987)" fill="white"/>
<rect x="416.005" y="3.3457" width="3" height="3" transform="rotate(-90.107 416.005 3.3457)" fill="white"/>
<rect x="429.004" y="3.32129" width="3" height="3" transform="rotate(-90.107 429.004 3.32129)" fill="white"/>
<rect x="442.004" y="3.29712" width="3" height="3" transform="rotate(-90.107 442.004 3.29712)" fill="white"/>
<rect x="455.004" y="3.27271" width="3" height="3" transform="rotate(-90.107 455.004 3.27271)" fill="white"/>
<rect x="468.004" y="3.24854" width="3" height="3" transform="rotate(-90.107 468.004 3.24854)" fill="white"/>
<rect x="481.004" y="3.22412" width="3" height="3" transform="rotate(-90.107 481.004 3.22412)" fill="white"/>
<rect x="494.004" y="3.19995" width="3" height="3" transform="rotate(-90.107 494.004 3.19995)" fill="white"/>
<rect x="507.004" y="3.17554" width="3" height="3" transform="rotate(-90.107 507.004 3.17554)" fill="white"/>
<rect x="520.004" y="3.15137" width="3" height="3" transform="rotate(-90.107 520.004 3.15137)" fill="white"/>
<rect x="533.004" y="3.12695" width="3" height="3" transform="rotate(-90.107 533.004 3.12695)" fill="white"/>
<rect x="546.004" y="3.10278" width="3" height="3" transform="rotate(-90.107 546.004 3.10278)" fill="white"/>
<rect x="559.004" y="3.07837" width="3" height="3" transform="rotate(-90.107 559.004 3.07837)" fill="white"/>
<rect x="572.004" y="3.0542" width="3" height="3" transform="rotate(-90.107 572.004 3.0542)" fill="white"/>
<rect x="585.004" y="3.02979" width="3" height="3" transform="rotate(-90.107 585.004 3.02979)" fill="white"/>
<rect x="598.004" y="3.00562" width="3" height="3" transform="rotate(-90.107 598.004 3.00562)" fill="white"/>
</svg>
