<svg width="109" height="101" viewBox="0 0 109 101" fill="none" xmlns="http://www.w3.org/2000/svg">
<rect width="109" height="101" rx="10" fill="#2D00F7"/>
<path d="M62.2812 81.0391V56.875H66.7812V81.0391C66.7812 83.2891 66.3203 85.1875 65.3984 86.7344C64.4766 88.2812 63.2031 89.4609 61.5781 90.2734C59.9688 91.0703 58.1172 91.4688 56.0234 91.4688C53.9297 91.4688 52.0703 91.1094 50.4453 90.3906C48.8203 89.6719 47.5469 88.5781 46.625 87.1094C45.7031 85.6406 45.2422 83.7891 45.2422 81.5547H49.7656C49.7656 82.9922 50.0312 84.1719 50.5625 85.0938C51.0938 86.0156 51.8281 86.6953 52.7656 87.1328C53.7188 87.5703 54.8047 87.7891 56.0234 87.7891C57.2109 87.7891 58.2734 87.5391 59.2109 87.0391C60.1641 86.5234 60.9141 85.7656 61.4609 84.7656C62.0078 83.75 62.2812 82.5078 62.2812 81.0391ZM92.6328 82.375C92.6328 81.5781 92.5078 80.875 92.2578 80.2656C92.0234 79.6406 91.6016 79.0781 90.9922 78.5781C90.3984 78.0781 89.5703 77.6016 88.5078 77.1484C87.4609 76.6953 86.1328 76.2344 84.5234 75.7656C82.8359 75.2656 81.3125 74.7109 79.9531 74.1016C78.5938 73.4766 77.4297 72.7656 76.4609 71.9688C75.4922 71.1719 74.75 70.2578 74.2344 69.2266C73.7188 68.1953 73.4609 67.0156 73.4609 65.6875C73.4609 64.3594 73.7344 63.1328 74.2812 62.0078C74.8281 60.8828 75.6094 59.9062 76.625 59.0781C77.6562 58.2344 78.8828 57.5781 80.3047 57.1094C81.7266 56.6406 83.3125 56.4062 85.0625 56.4062C87.625 56.4062 89.7969 56.8984 91.5781 57.8828C93.375 58.8516 94.7422 60.125 95.6797 61.7031C96.6172 63.2656 97.0859 64.9375 97.0859 66.7188H92.5859C92.5859 65.4375 92.3125 64.3047 91.7656 63.3203C91.2188 62.3203 90.3906 61.5391 89.2812 60.9766C88.1719 60.3984 86.7656 60.1094 85.0625 60.1094C83.4531 60.1094 82.125 60.3516 81.0781 60.8359C80.0312 61.3203 79.25 61.9766 78.7344 62.8047C78.2344 63.6328 77.9844 64.5781 77.9844 65.6406C77.9844 66.3594 78.1328 67.0156 78.4297 67.6094C78.7422 68.1875 79.2188 68.7266 79.8594 69.2266C80.5156 69.7266 81.3438 70.1875 82.3438 70.6094C83.3594 71.0312 84.5703 71.4375 85.9766 71.8281C87.9141 72.375 89.5859 72.9844 90.9922 73.6562C92.3984 74.3281 93.5547 75.0859 94.4609 75.9297C95.3828 76.7578 96.0625 77.7031 96.5 78.7656C96.9531 79.8125 97.1797 81 97.1797 82.3281C97.1797 83.7188 96.8984 84.9766 96.3359 86.1016C95.7734 87.2266 94.9688 88.1875 93.9219 88.9844C92.875 89.7812 91.6172 90.3984 90.1484 90.8359C88.6953 91.2578 87.0703 91.4688 85.2734 91.4688C83.6953 91.4688 82.1406 91.25 80.6094 90.8125C79.0938 90.375 77.7109 89.7188 76.4609 88.8438C75.2266 87.9688 74.2344 86.8906 73.4844 85.6094C72.75 84.3125 72.3828 82.8125 72.3828 81.1094H76.8828C76.8828 82.2812 77.1094 83.2891 77.5625 84.1328C78.0156 84.9609 78.6328 85.6484 79.4141 86.1953C80.2109 86.7422 81.1094 87.1484 82.1094 87.4141C83.125 87.6641 84.1797 87.7891 85.2734 87.7891C86.8516 87.7891 88.1875 87.5703 89.2812 87.1328C90.375 86.6953 91.2031 86.0703 91.7656 85.2578C92.3438 84.4453 92.6328 83.4844 92.6328 82.375Z" fill="white"/>
</svg>
