<svg width="142" height="50" viewBox="0 0 142 50" fill="none" xmlns="http://www.w3.org/2000/svg">
<path d="M45.7141 30.9144L24.5651 41.1819C20.2402 43.2816 15.2116 40.1222 15.2263 35.3147L15.2897 14.6501C15.3044 9.8426 20.3524 6.71412 24.6642 8.84024L45.7499 19.2373C50.6003 21.6289 50.579 28.5525 45.7141 30.9144Z" stroke="#DF2AA3"/>
<path d="M86.7126 30.8626L65.5636 41.1302C61.2388 43.2298 56.2101 40.0704 56.2248 35.2629L56.2882 14.5984C56.3029 9.79084 61.3509 6.66236 65.6628 8.78848L86.7484 19.1855C91.5988 21.5772 91.5776 28.5008 86.7126 30.8626Z" stroke="#DF2AA3"/>
<path d="M128.02 30.8626L106.871 41.1302C102.546 43.2298 97.5177 40.0704 97.5325 35.2629L97.5958 14.5984C97.6106 9.79084 102.659 6.66236 106.97 8.78848L128.056 19.1855C132.906 21.5772 132.885 28.5008 128.02 30.8626Z" stroke="#DF2AA3"/>
</svg>
