<svg width="166" height="166" viewBox="0 0 166 166" fill="none" xmlns="http://www.w3.org/2000/svg">
<path d="M45.8374 130.29C48.3125 132.231 51.7429 132.222 55.3892 131.133C59.0821 130.03 63.3606 127.723 67.9393 124.488C77.1131 118.007 87.7815 107.595 97.8144 94.802C107.847 82.0089 115.416 69.1662 119.524 58.7119C121.574 53.4941 122.795 48.789 122.986 44.9397C123.174 41.1389 122.365 37.8052 119.89 35.8641C117.415 33.9231 113.984 33.9323 110.338 35.021C106.645 36.1237 102.367 38.4309 97.788 41.6657C88.6142 48.1469 77.9458 58.5589 67.9129 71.352C57.8801 84.1451 50.3111 96.9878 46.2034 107.442C44.1532 112.66 42.9324 117.365 42.7418 121.214C42.5536 125.015 43.3623 128.349 45.8374 130.29Z" stroke="#2D00F7" stroke-width="3"/>
<path d="M22.79 86.3799C22.9313 89.5222 25.1744 92.1176 28.3769 94.1732C31.6203 96.2549 36.1589 97.9956 41.5966 99.3593C52.4915 102.092 67.3417 103.395 83.5832 102.664C99.8247 101.934 114.498 99.3022 125.103 95.6028C130.397 93.7563 134.761 91.6152 137.804 89.2506C140.809 86.9158 142.81 84.1294 142.669 80.9872C142.527 77.8449 140.284 75.2495 137.082 73.1939C133.838 71.1121 129.3 69.3715 123.862 68.0078C112.967 65.2755 98.117 63.9721 81.8755 64.7027C65.634 65.4334 50.9608 68.0649 40.3552 71.7643C35.0619 73.6108 30.698 75.7519 27.6546 78.1165C24.6496 80.4513 22.6486 83.2377 22.79 86.3799Z" stroke="#2D00F7" stroke-width="3"/>
<path d="M49.6353 33.5895C47.033 35.3564 45.9977 38.6269 45.925 42.4316C45.8514 46.2849 46.747 51.0626 48.4348 56.4086C51.8164 67.1198 58.4876 80.451 67.6202 93.9015C76.7528 107.352 86.6827 118.471 95.3908 125.565C99.7371 129.106 103.847 131.701 107.456 133.054C111.019 134.39 114.441 134.635 117.043 132.868C119.646 131.101 120.681 127.83 120.753 124.026C120.827 120.172 119.932 115.395 118.244 110.049C114.862 99.3374 108.191 86.0061 99.0583 72.5557C89.9257 59.1052 79.9959 47.9865 71.2877 40.8919C66.9414 37.351 62.8311 34.756 59.2224 33.4029C55.6593 32.0669 52.2376 31.8226 49.6353 33.5895Z" stroke="#2D00F7" stroke-width="3"/>
<circle cx="83.0416" cy="83.7619" r="4.5" transform="rotate(30.3834 83.0416 83.7619)" stroke="#F20089" stroke-width="3"/>
</svg>
