<svg width="164" height="159" viewBox="0 0 164 159" fill="none" xmlns="http://www.w3.org/2000/svg">
<rect width="3" height="3" fill="#2D00F7"/>
<rect y="13" width="3" height="3" fill="#2D00F7"/>
<rect y="26" width="3" height="3" fill="#2D00F7"/>
<rect y="39" width="3" height="3" fill="#2D00F7"/>
<rect y="52" width="3" height="3" fill="#2D00F7"/>
<rect y="65" width="3" height="3" fill="#2D00F7"/>
<rect y="78" width="3" height="3" fill="#2D00F7"/>
<rect y="91" width="3" height="3" fill="#2D00F7"/>
<rect y="104" width="3" height="3" fill="#2D00F7"/>
<rect y="117" width="3" height="3" fill="#2D00F7"/>
<rect y="130" width="3" height="3" fill="#2D00F7"/>
<rect y="143" width="3" height="3" fill="#2D00F7"/>
<rect y="156" width="3" height="3" fill="#2D00F7"/>
<rect x="88" width="3" height="3" fill="#2D00F7"/>
<rect x="88" y="13" width="3" height="3" fill="#2D00F7"/>
<rect x="88" y="26" width="3" height="3" fill="#2D00F7"/>
<rect x="88" y="39" width="3" height="3" fill="#2D00F7"/>
<rect x="88" y="52" width="3" height="3" fill="#2D00F7"/>
<rect x="88" y="65" width="3" height="3" fill="#2D00F7"/>
<rect x="88" y="78" width="3" height="3" fill="#2D00F7"/>
<rect x="88" y="91" width="3" height="3" fill="#2D00F7"/>
<rect x="88" y="104" width="3" height="3" fill="#2D00F7"/>
<rect x="88" y="117" width="3" height="3" fill="#2D00F7"/>
<rect x="88" y="130" width="3" height="3" fill="#2D00F7"/>
<rect x="88" y="143" width="3" height="3" fill="#2D00F7"/>
<rect x="88" y="156" width="3" height="3" fill="#2D00F7"/>
<rect x="13" width="3" height="3" fill="#2D00F7"/>
<rect x="13" y="13" width="3" height="3" fill="#2D00F7"/>
<rect x="13" y="26" width="3" height="3" fill="#2D00F7"/>
<rect x="13" y="39" width="3" height="3" fill="#2D00F7"/>
<rect x="13" y="52" width="3" height="3" fill="#2D00F7"/>
<rect x="13" y="65" width="3" height="3" fill="#2D00F7"/>
<rect x="13" y="78" width="3" height="3" fill="#2D00F7"/>
<rect x="13" y="91" width="3" height="3" fill="#2D00F7"/>
<rect x="13" y="104" width="3" height="3" fill="#2D00F7"/>
<rect x="13" y="117" width="3" height="3" fill="#2D00F7"/>
<rect x="13" y="130" width="3" height="3" fill="#2D00F7"/>
<rect x="13" y="143" width="3" height="3" fill="#2D00F7"/>
<rect x="13" y="156" width="3" height="3" fill="#2D00F7"/>
<rect x="101" width="3" height="3" fill="#2D00F7"/>
<rect x="101" y="13" width="3" height="3" fill="#2D00F7"/>
<rect x="101" y="26" width="3" height="3" fill="#2D00F7"/>
<rect x="101" y="39" width="3" height="3" fill="#2D00F7"/>
<rect x="101" y="52" width="3" height="3" fill="#2D00F7"/>
<rect x="101" y="65" width="3" height="3" fill="#2D00F7"/>
<rect x="101" y="78" width="3" height="3" fill="#2D00F7"/>
<rect x="101" y="91" width="3" height="3" fill="#2D00F7"/>
<rect x="101" y="104" width="3" height="3" fill="#2D00F7"/>
<rect x="101" y="117" width="3" height="3" fill="#2D00F7"/>
<rect x="101" y="130" width="3" height="3" fill="#2D00F7"/>
<rect x="101" y="143" width="3" height="3" fill="#2D00F7"/>
<rect x="101" y="156" width="3" height="3" fill="#2D00F7"/>
<rect x="28" width="3" height="3" fill="#2D00F7"/>
<rect x="28" y="13" width="3" height="3" fill="#2D00F7"/>
<rect x="28" y="26" width="3" height="3" fill="#2D00F7"/>
<rect x="28" y="39" width="3" height="3" fill="#2D00F7"/>
<rect x="28" y="52" width="3" height="3" fill="#2D00F7"/>
<rect x="28" y="65" width="3" height="3" fill="#2D00F7"/>
<rect x="28" y="78" width="3" height="3" fill="#2D00F7"/>
<rect x="28" y="91" width="3" height="3" fill="#2D00F7"/>
<rect x="28" y="104" width="3" height="3" fill="#2D00F7"/>
<rect x="28" y="117" width="3" height="3" fill="#2D00F7"/>
<rect x="28" y="130" width="3" height="3" fill="#2D00F7"/>
<rect x="28" y="143" width="3" height="3" fill="#2D00F7"/>
<rect x="28" y="156" width="3" height="3" fill="#2D00F7"/>
<rect x="116" width="3" height="3" fill="#2D00F7"/>
<rect x="116" y="13" width="3" height="3" fill="#2D00F7"/>
<rect x="116" y="26" width="3" height="3" fill="#2D00F7"/>
<rect x="116" y="39" width="3" height="3" fill="#2D00F7"/>
<rect x="116" y="52" width="3" height="3" fill="#2D00F7"/>
<rect x="116" y="65" width="3" height="3" fill="#2D00F7"/>
<rect x="116" y="78" width="3" height="3" fill="#2D00F7"/>
<rect x="116" y="91" width="3" height="3" fill="#2D00F7"/>
<rect x="116" y="104" width="3" height="3" fill="#2D00F7"/>
<rect x="116" y="117" width="3" height="3" fill="#2D00F7"/>
<rect x="116" y="130" width="3" height="3" fill="#2D00F7"/>
<rect x="116" y="143" width="3" height="3" fill="#2D00F7"/>
<rect x="116" y="156" width="3" height="3" fill="#2D00F7"/>
<rect x="43" width="3" height="3" fill="#2D00F7"/>
<rect x="43" y="13" width="3" height="3" fill="#2D00F7"/>
<rect x="43" y="26" width="3" height="3" fill="#2D00F7"/>
<rect x="43" y="39" width="3" height="3" fill="#2D00F7"/>
<rect x="43" y="52" width="3" height="3" fill="#2D00F7"/>
<rect x="43" y="65" width="3" height="3" fill="#2D00F7"/>
<rect x="43" y="78" width="3" height="3" fill="#2D00F7"/>
<rect x="43" y="91" width="3" height="3" fill="#2D00F7"/>
<rect x="43" y="104" width="3" height="3" fill="#2D00F7"/>
<rect x="43" y="117" width="3" height="3" fill="#2D00F7"/>
<rect x="43" y="130" width="3" height="3" fill="#2D00F7"/>
<rect x="43" y="143" width="3" height="3" fill="#2D00F7"/>
<rect x="43" y="156" width="3" height="3" fill="#2D00F7"/>
<rect x="131" width="3" height="3" fill="#2D00F7"/>
<rect x="131" y="13" width="3" height="3" fill="#2D00F7"/>
<rect x="131" y="26" width="3" height="3" fill="#2D00F7"/>
<rect x="131" y="39" width="3" height="3" fill="#2D00F7"/>
<rect x="131" y="52" width="3" height="3" fill="#2D00F7"/>
<rect x="131" y="65" width="3" height="3" fill="#2D00F7"/>
<rect x="131" y="78" width="3" height="3" fill="#2D00F7"/>
<rect x="131" y="91" width="3" height="3" fill="#2D00F7"/>
<rect x="131" y="104" width="3" height="3" fill="#2D00F7"/>
<rect x="131" y="117" width="3" height="3" fill="#2D00F7"/>
<rect x="131" y="130" width="3" height="3" fill="#2D00F7"/>
<rect x="131" y="143" width="3" height="3" fill="#2D00F7"/>
<rect x="131" y="156" width="3" height="3" fill="#2D00F7"/>
<rect x="58" width="3" height="3" fill="#2D00F7"/>
<rect x="58" y="13" width="3" height="3" fill="#2D00F7"/>
<rect x="58" y="26" width="3" height="3" fill="#2D00F7"/>
<rect x="58" y="39" width="3" height="3" fill="#2D00F7"/>
<rect x="58" y="52" width="3" height="3" fill="#2D00F7"/>
<rect x="58" y="65" width="3" height="3" fill="#2D00F7"/>
<rect x="58" y="78" width="3" height="3" fill="#2D00F7"/>
<rect x="58" y="91" width="3" height="3" fill="#2D00F7"/>
<rect x="58" y="104" width="3" height="3" fill="#2D00F7"/>
<rect x="58" y="117" width="3" height="3" fill="#2D00F7"/>
<rect x="58" y="130" width="3" height="3" fill="#2D00F7"/>
<rect x="58" y="143" width="3" height="3" fill="#2D00F7"/>
<rect x="58" y="156" width="3" height="3" fill="#2D00F7"/>
<rect x="146" width="3" height="3" fill="#2D00F7"/>
<rect x="146" y="13" width="3" height="3" fill="#2D00F7"/>
<rect x="146" y="26" width="3" height="3" fill="#2D00F7"/>
<rect x="146" y="39" width="3" height="3" fill="#2D00F7"/>
<rect x="146" y="52" width="3" height="3" fill="#2D00F7"/>
<rect x="146" y="65" width="3" height="3" fill="#2D00F7"/>
<rect x="146" y="78" width="3" height="3" fill="#2D00F7"/>
<rect x="146" y="91" width="3" height="3" fill="#2D00F7"/>
<rect x="146" y="104" width="3" height="3" fill="#2D00F7"/>
<rect x="146" y="117" width="3" height="3" fill="#2D00F7"/>
<rect x="146" y="130" width="3" height="3" fill="#2D00F7"/>
<rect x="146" y="143" width="3" height="3" fill="#2D00F7"/>
<rect x="146" y="156" width="3" height="3" fill="#2D00F7"/>
<rect x="73" width="3" height="3" fill="#2D00F7"/>
<rect x="73" y="13" width="3" height="3" fill="#2D00F7"/>
<rect x="73" y="26" width="3" height="3" fill="#2D00F7"/>
<rect x="73" y="39" width="3" height="3" fill="#2D00F7"/>
<rect x="73" y="52" width="3" height="3" fill="#2D00F7"/>
<rect x="73" y="65" width="3" height="3" fill="#2D00F7"/>
<rect x="73" y="78" width="3" height="3" fill="#2D00F7"/>
<rect x="73" y="91" width="3" height="3" fill="#2D00F7"/>
<rect x="73" y="104" width="3" height="3" fill="#2D00F7"/>
<rect x="73" y="117" width="3" height="3" fill="#2D00F7"/>
<rect x="73" y="130" width="3" height="3" fill="#2D00F7"/>
<rect x="73" y="143" width="3" height="3" fill="#2D00F7"/>
<rect x="73" y="156" width="3" height="3" fill="#2D00F7"/>
<rect x="161" width="3" height="3" fill="#2D00F7"/>
<rect x="161" y="13" width="3" height="3" fill="#2D00F7"/>
<rect x="161" y="26" width="3" height="3" fill="#2D00F7"/>
<rect x="161" y="39" width="3" height="3" fill="#2D00F7"/>
<rect x="161" y="52" width="3" height="3" fill="#2D00F7"/>
<rect x="161" y="65" width="3" height="3" fill="#2D00F7"/>
<rect x="161" y="78" width="3" height="3" fill="#2D00F7"/>
<rect x="161" y="91" width="3" height="3" fill="#2D00F7"/>
<rect x="161" y="104" width="3" height="3" fill="#2D00F7"/>
<rect x="161" y="117" width="3" height="3" fill="#2D00F7"/>
<rect x="161" y="130" width="3" height="3" fill="#2D00F7"/>
<rect x="161" y="143" width="3" height="3" fill="#2D00F7"/>
<rect x="161" y="156" width="3" height="3" fill="#2D00F7"/>
</svg>
