<svg width="31" height="30" viewBox="0 0 31 30" fill="none" xmlns="http://www.w3.org/2000/svg">
<path d="M12.6295 2.4509C13.4913 -0.386619 17.5087 -0.386619 18.3705 2.4509L19.6807 6.76447C20.0646 8.02848 21.2302 8.89261 22.5512 8.89261H27.1993C30.0562 8.89261 31.296 12.508 29.0403 14.2613L24.9395 17.4486C23.9582 18.2112 23.5488 19.4999 23.91 20.6891L25.393 25.5719C26.2435 28.3718 22.992 30.6082 20.6815 28.8125L17.341 26.2161C16.258 25.3744 14.742 25.3744 13.659 26.2161L10.3185 28.8125C8.00805 30.6082 4.75654 28.3718 5.60696 25.5719L7.09001 20.6891C7.45119 19.4999 7.04177 18.2112 6.06051 17.4486L1.95973 14.2613C-0.296035 12.508 0.943763 8.89261 3.80074 8.89261H8.44881C9.76984 8.89261 10.9354 8.02848 11.3193 6.76447L12.6295 2.4509Z" fill="#2CFF80"/>
<path d="M17.8921 2.59621L19.2023 6.90978C19.6502 8.38446 21.01 9.39261 22.5512 9.39261H27.1993C29.5801 9.39261 30.6132 12.4055 28.7334 13.8665L24.6327 17.0538C23.4879 17.9435 23.0102 19.4471 23.4316 20.8344L24.9146 25.7172C25.6233 28.0505 22.9137 29.9141 20.9883 28.4177L17.6479 25.8213C16.3843 24.8393 14.6157 24.8393 13.3521 25.8213L10.0117 28.4177C8.08629 29.9141 5.37669 28.0505 6.08538 25.7172L7.56843 20.8344C7.98981 19.4471 7.51215 17.9435 6.36735 17.0538L2.26656 13.8665C0.386762 12.4055 1.41993 9.39261 3.80074 9.39261H8.44881C9.99002 9.39261 11.3498 8.38446 11.7977 6.90978L13.1079 2.59621C13.8261 0.231611 17.1739 0.231611 17.8921 2.59621Z" stroke="black" stroke-opacity="0.1"/>
</svg>
