<svg width="72" height="72" viewBox="0 0 72 72" fill="none" xmlns="http://www.w3.org/2000/svg">
<path d="M36.048 47.547C42.4913 47.5698 47.7331 42.3649 47.7558 35.9216C47.7786 29.4784 42.5737 24.2366 36.1305 24.2138C29.6872 24.1911 24.4454 29.3959 24.4226 35.8392C24.3999 42.2825 29.6047 47.5242 36.048 47.547Z" stroke="black" stroke-width="2" stroke-linecap="round" stroke-linejoin="round"/>
<path d="M36.1919 6.71387L36.1713 12.5475" stroke="black" stroke-width="2" stroke-linecap="round" stroke-linejoin="round"/>
<path d="M36.0063 59.2136L35.9857 65.0473" stroke="black" stroke-width="2" stroke-linecap="round" stroke-linejoin="round"/>
<path d="M15.7446 15.3917L20.1041 19.7822" stroke="black" stroke-width="2" stroke-linecap="round" stroke-linejoin="round"/>
<path d="M52.0737 51.9786L56.4332 56.3691" stroke="black" stroke-width="2" stroke-linecap="round" stroke-linejoin="round"/>
<path d="M6.92236 35.7773L12.7557 35.798" stroke="black" stroke-width="2" stroke-linecap="round" stroke-linejoin="round"/>
<path d="M59.4224 35.9628L65.2557 35.9834" stroke="black" stroke-width="2" stroke-linecap="round" stroke-linejoin="round"/>
<path d="M15.6003 56.2248L19.9907 51.8653" stroke="black" stroke-width="2" stroke-linecap="round" stroke-linejoin="round"/>
<path d="M52.1872 19.8955L56.5776 15.536" stroke="black" stroke-width="2" stroke-linecap="round" stroke-linejoin="round"/>
</svg>
