<svg width="109" height="101" viewBox="0 0 109 101" fill="none" xmlns="http://www.w3.org/2000/svg">
<rect width="109" height="101" rx="10" fill="#2D00F7"/>
<path d="M60.5703 56.875V91H56.1172V56.875H60.5703ZM71.5391 56.875V60.5781H45.1719V56.875H71.5391ZM94.4141 82.375C94.4141 81.5781 94.2891 80.875 94.0391 80.2656C93.8047 79.6406 93.3828 79.0781 92.7734 78.5781C92.1797 78.0781 91.3516 77.6016 90.2891 77.1484C89.2422 76.6953 87.9141 76.2344 86.3047 75.7656C84.6172 75.2656 83.0938 74.7109 81.7344 74.1016C80.375 73.4766 79.2109 72.7656 78.2422 71.9688C77.2734 71.1719 76.5312 70.2578 76.0156 69.2266C75.5 68.1953 75.2422 67.0156 75.2422 65.6875C75.2422 64.3594 75.5156 63.1328 76.0625 62.0078C76.6094 60.8828 77.3906 59.9062 78.4062 59.0781C79.4375 58.2344 80.6641 57.5781 82.0859 57.1094C83.5078 56.6406 85.0938 56.4062 86.8438 56.4062C89.4062 56.4062 91.5781 56.8984 93.3594 57.8828C95.1562 58.8516 96.5234 60.125 97.4609 61.7031C98.3984 63.2656 98.8672 64.9375 98.8672 66.7188H94.3672C94.3672 65.4375 94.0938 64.3047 93.5469 63.3203C93 62.3203 92.1719 61.5391 91.0625 60.9766C89.9531 60.3984 88.5469 60.1094 86.8438 60.1094C85.2344 60.1094 83.9062 60.3516 82.8594 60.8359C81.8125 61.3203 81.0312 61.9766 80.5156 62.8047C80.0156 63.6328 79.7656 64.5781 79.7656 65.6406C79.7656 66.3594 79.9141 67.0156 80.2109 67.6094C80.5234 68.1875 81 68.7266 81.6406 69.2266C82.2969 69.7266 83.125 70.1875 84.125 70.6094C85.1406 71.0312 86.3516 71.4375 87.7578 71.8281C89.6953 72.375 91.3672 72.9844 92.7734 73.6562C94.1797 74.3281 95.3359 75.0859 96.2422 75.9297C97.1641 76.7578 97.8438 77.7031 98.2812 78.7656C98.7344 79.8125 98.9609 81 98.9609 82.3281C98.9609 83.7188 98.6797 84.9766 98.1172 86.1016C97.5547 87.2266 96.75 88.1875 95.7031 88.9844C94.6562 89.7812 93.3984 90.3984 91.9297 90.8359C90.4766 91.2578 88.8516 91.4688 87.0547 91.4688C85.4766 91.4688 83.9219 91.25 82.3906 90.8125C80.875 90.375 79.4922 89.7188 78.2422 88.8438C77.0078 87.9688 76.0156 86.8906 75.2656 85.6094C74.5312 84.3125 74.1641 82.8125 74.1641 81.1094H78.6641C78.6641 82.2812 78.8906 83.2891 79.3438 84.1328C79.7969 84.9609 80.4141 85.6484 81.1953 86.1953C81.9922 86.7422 82.8906 87.1484 83.8906 87.4141C84.9062 87.6641 85.9609 87.7891 87.0547 87.7891C88.6328 87.7891 89.9688 87.5703 91.0625 87.1328C92.1562 86.6953 92.9844 86.0703 93.5469 85.2578C94.125 84.4453 94.4141 83.4844 94.4141 82.375Z" fill="white"/>
</svg>
